<?xml version="1.0" encoding="UTF-8"?>
<svg version="1.1" xmlns="http://www.w3.org/2000/svg" width="512" height="512">
<path d="M0 0 C1.13526432 -0.00367669 2.27052864 -0.00735338 3.4401949 -0.01114148 C7.24124722 -0.02214714 11.04227217 -0.02601693 14.84333801 -0.02983093 C17.57050813 -0.0355694 20.2976742 -0.04273288 23.02484131 -0.04974365 C31.2074807 -0.06946281 39.39012124 -0.07957 47.57277843 -0.08847144 C51.43493651 -0.09286314 55.29709324 -0.09822777 59.15925026 -0.10346031 C72.01416203 -0.12047055 84.86907297 -0.13496083 97.72399426 -0.14220905 C101.05641875 -0.14411867 104.38884323 -0.14603904 107.7212677 -0.147995 C108.96351883 -0.14872061 108.96351883 -0.14872061 110.23086593 -0.14946087 C123.6220619 -0.15774664 137.01316812 -0.18305981 150.40432497 -0.21557567 C164.18175611 -0.24875403 177.95914183 -0.26666764 191.73661309 -0.26985329 C199.4602705 -0.27200881 207.18379717 -0.28061544 214.90741539 -0.30631447 C221.49066186 -0.32816956 228.07374583 -0.33600012 234.65702447 -0.32634769 C238.00751849 -0.32184478 241.35741018 -0.32569491 244.707901 -0.34310913 C285.0609888 -0.54095037 318.65224445 11.01727072 348.16291809 39.27217102 C371.14472702 62.77852908 384.81583593 94.58501542 384.81008911 127.48425293 C384.8137658 128.61951725 384.81744249 129.75478157 384.82123059 130.92444783 C384.83223625 134.72550015 384.83610605 138.5265251 384.83992004 142.32759094 C384.84565851 145.05476106 384.85282199 147.78192713 384.85983276 150.50909424 C384.87955192 158.69173363 384.88965911 166.87437417 384.89856055 175.05703136 C384.90295225 178.91918944 384.90831689 182.78134617 384.91354942 186.64350319 C384.93055966 199.49841496 384.94504994 212.3533259 384.95229816 225.20824718 C384.95420778 228.54067168 384.95612815 231.87309616 384.95808411 235.20552063 C384.95856785 236.03368805 384.95905159 236.86185546 384.95954999 237.71511886 C384.96783575 251.10631483 384.99314892 264.49742105 385.02566478 277.8885779 C385.05884314 291.66600904 385.07675675 305.44339476 385.07994241 319.22086602 C385.08209792 326.94452343 385.09070455 334.6680501 385.11640358 342.39166832 C385.13825868 348.97491479 385.14608923 355.55799876 385.1364368 362.1412774 C385.13193389 365.49177142 385.13578402 368.84166311 385.15319824 372.19215393 C385.35103948 412.54524173 373.79281839 446.13649738 345.53791809 475.64717102 C322.03156003 498.62897995 290.22507369 512.30008886 257.32583618 512.29434204 C256.19057186 512.29801873 255.05530754 512.30169542 253.88564128 512.30548352 C250.08458896 512.31648918 246.28356401 512.32035898 242.48249817 512.32417297 C239.75532805 512.32991144 237.02816198 512.33707492 234.30099487 512.34408569 C226.11835548 512.36380485 217.93571494 512.37391204 209.75305775 512.38281348 C205.89089967 512.38720518 202.02874294 512.39256982 198.16658592 512.39780235 C185.31167416 512.41481259 172.45676321 512.42930287 159.60184193 512.43655109 C156.26941743 512.43846071 152.93699295 512.44038108 149.60456848 512.44233704 C148.36231736 512.44306265 148.36231736 512.44306265 147.09497025 512.44380292 C133.70377428 512.45208868 120.31266806 512.47740185 106.92151121 512.50991771 C93.14408007 512.54309607 79.36669435 512.56100968 65.58922309 512.56419533 C57.86556568 512.56635085 50.14203901 512.57495748 42.41842079 512.60065651 C35.83517432 512.62251161 29.25209035 512.63034216 22.66881172 512.62068973 C19.31831769 512.61618682 15.968426 512.62003695 12.61793518 512.63745117 C-27.73515262 512.83529241 -61.32640827 501.27707132 -90.83708191 473.02217102 C-113.81889084 449.51581296 -127.48999975 417.70932662 -127.48425293 384.81008911 C-127.48792962 383.67482479 -127.49160631 382.53956047 -127.49539441 381.36989421 C-127.50640007 377.56884189 -127.51026986 373.76781694 -127.51408386 369.9667511 C-127.51982233 367.23958098 -127.52698581 364.51241491 -127.53399658 361.7852478 C-127.55371574 353.60260841 -127.56382293 345.41996787 -127.57272437 337.23731068 C-127.57711607 333.3751526 -127.5824807 329.51299587 -127.58771324 325.65083885 C-127.60472348 312.79592709 -127.61921376 299.94101614 -127.62646198 287.08609486 C-127.6283716 283.75367036 -127.63029197 280.42124588 -127.63224792 277.08882141 C-127.63273167 276.26065399 -127.63321541 275.43248658 -127.6337138 274.57922318 C-127.64199956 261.18802721 -127.66731274 247.79692099 -127.6998286 234.40576414 C-127.73300696 220.628333 -127.75092057 206.85094728 -127.75410622 193.07347602 C-127.75626174 185.34981861 -127.76486837 177.62629194 -127.7905674 169.90267372 C-127.81242249 163.31942725 -127.82025305 156.73634328 -127.81060062 150.15306465 C-127.80609771 146.80257062 -127.80994784 143.45267893 -127.82736206 140.10218811 C-128.0252033 99.74910031 -116.46698221 66.15784466 -88.21208191 36.64717102 C-64.70572385 13.66536209 -32.89923751 -0.00574682 0 0 Z M91.14338684 140.13154602 C88.17511313 142.71631974 85.15664667 145.22899497 82.10041809 147.70967102 C75.8780245 152.76593521 69.77179844 157.9549808 63.66291809 163.14717102 C56.65057251 169.10725373 49.61331004 175.02475897 42.47541809 180.83467102 C38.78197899 183.87149872 35.13993323 186.96678057 31.49665833 190.06343079 C28.103377 192.94262422 24.68024023 195.77921339 21.22541809 198.58467102 C16.36607269 202.5386362 11.6124648 206.60477649 6.86775208 210.6945343 C3.21577449 213.83570716 -0.47409685 216.92061668 -4.21208191 219.95967102 C-5.52305847 221.03088196 -5.52305847 221.03088196 -6.86051941 222.12373352 C-8.46616566 223.43560223 -10.07533793 224.74317173 -11.68864441 226.04560852 C-16.59523177 230.13145763 -19.85698688 233.29004395 -20.68083191 239.90888977 C-21.0365771 246.99711276 -20.08038694 251.7817932 -15.33708191 257.14717102 C-12.90099398 259.53106018 -12.90099398 259.53106018 -10.33708191 261.14717102 C-9.54237488 261.68857727 -9.54237488 261.68857727 -8.73161316 262.24092102 C-5.05759046 263.63141574 -1.47720701 263.35603773 2.41291809 263.27217102 C3.20569153 263.26314758 3.99846497 263.25412415 4.81526184 263.24482727 C6.76461091 263.22134114 8.71380384 263.18547239 10.66291809 263.14717102 C10.65923092 263.72216843 10.65554375 264.29716583 10.65174484 264.8895874 C10.5632682 278.90392719 10.4971476 292.91822491 10.4556694 306.93278503 C10.4350758 313.71024123 10.40701702 320.48751057 10.36116028 327.2648468 C10.31691549 333.80708614 10.29377036 340.34920439 10.28340912 346.8915863 C10.27602652 349.38581901 10.26161007 351.88004128 10.23999786 354.37419128 C10.21090089 357.87166668 10.20696489 361.36834378 10.20881653 364.86592102 C10.19443542 365.89379227 10.18005432 366.92166351 10.16523743 367.98068237 C10.20667497 375.22872263 11.48607099 380.93373835 16.69807434 386.20576477 C17.36709778 386.66080383 18.03612122 387.1158429 18.72541809 387.58467102 C19.73282043 388.29429993 19.73282043 388.29429993 20.76057434 389.01826477 C24.47798771 391.22428626 27.55729167 391.26913834 31.78669739 391.26069641 C33.04777817 391.26062088 34.30885895 391.26054535 35.6081543 391.26046753 C36.98448221 391.25536091 38.36080972 391.25014491 39.73713684 391.24482727 C41.1453242 391.24296188 42.5535122 391.24153855 43.96170044 391.24053955 C47.66559139 391.2367239 51.36944304 391.22690174 55.07331848 391.21583557 C58.85383065 391.20560099 62.63434918 391.20103754 66.41487122 391.19599915 C73.83090474 391.18527862 81.24690591 391.16821362 88.66291809 391.14717102 C88.66656372 390.23643326 88.67020935 389.3256955 88.67396545 388.38735962 C88.71202544 379.75281933 88.7690802 371.11864985 88.84682083 362.48437214 C88.8861241 358.04668128 88.91839581 353.60918377 88.93391418 349.17134094 C88.9491949 344.87871223 88.98383875 340.58661569 89.03122711 336.29422569 C89.04592437 334.66664984 89.05395231 333.03899796 89.05480194 331.41135597 C89.06939077 317.46131146 90.34531066 304.57027546 100.66291809 294.14717102 C108.98016215 286.43513183 119.50397788 282.71853024 130.78401184 282.86982727 C141.63059866 283.91474947 151.43044393 288.41650849 158.91291809 296.33467102 C165.36389816 304.40288843 167.78292445 313.47025943 167.86824036 323.5995636 C167.87813995 324.33181152 167.88803955 325.06405945 167.89823914 325.8184967 C167.92969434 328.22619959 167.95454798 330.63392218 167.97932434 333.04170227 C167.99990769 334.71607969 168.02090452 336.39045207 168.04229736 338.06481934 C168.09737547 342.46238618 168.14684739 346.85999881 168.19514465 351.25764465 C168.24546408 355.74885614 168.30109554 360.24000149 168.35627747 364.7311554 C168.4636845 373.53643795 168.56516792 382.34177599 168.66291809 391.14717102 C176.73887302 391.24015076 184.81460157 391.31107662 192.89096069 391.35441971 C196.64179998 391.37522999 200.39227111 391.40342569 204.14289856 391.44892883 C207.76744671 391.49262352 211.39164236 391.51635738 215.01643372 391.52667999 C216.39425703 391.53402934 217.77206264 391.54838048 219.1497345 391.57009125 C227.58052313 391.69758019 234.68696864 391.80412355 241.17195129 385.73487854 C245.09812546 381.35100158 246.91642497 377.09851357 246.90342712 371.25598145 C246.90617645 370.29830872 246.90892578 369.34063599 246.91175842 368.35394287 C246.90456787 367.3152858 246.89737732 366.27662872 246.88996887 365.20649719 C246.89040695 363.55217178 246.89040695 363.55217178 246.89085388 361.86442566 C246.88946174 358.2229167 246.87390569 354.58161294 246.85823059 350.94013977 C246.85450006 348.41379915 246.85165328 345.88745709 246.84965515 343.3611145 C246.84280189 337.39364948 246.82704262 331.42627239 246.80695617 325.45884258 C246.7845799 318.66321938 246.7735994 311.86759262 246.7635653 305.07194173 C246.74267586 291.0969775 246.70751069 277.12207829 246.66291809 263.14717102 C247.83427307 263.17254944 249.00562805 263.19792786 250.21247864 263.22407532 C251.76235705 263.24459962 253.31224375 263.26450523 254.86213684 263.28388977 C255.63263367 263.30221863 256.40313049 263.32054749 257.19697571 263.33943176 C262.38881321 263.38813568 266.02959742 262.89662967 270.22151184 259.57685852 C275.17565937 254.66298861 277.94195256 250.50294742 278.16291809 243.45967102 C277.96358188 235.96644152 275.57031953 231.85746319 270.18196106 226.74092102 C266.13438072 223.05672345 261.91451571 219.59160891 257.66291809 216.14717102 C256.70643372 215.36213196 255.74994934 214.5770929 254.76448059 213.76826477 C252.99304342 212.31630967 251.21831175 210.86836441 249.44026184 209.42451477 C245.75532666 206.40297158 242.12723488 203.31681151 238.49641418 200.23066711 C235.10318334 197.35159259 231.68015089 194.5150561 228.22541809 191.70967102 C223.36162784 187.75208914 218.60410578 183.68174656 213.85456848 179.58882141 C210.3299289 176.55771813 206.77251927 173.57731786 203.16291809 170.64717102 C198.93499329 167.21509089 194.78763919 163.70165931 190.66291809 160.14717102 C185.65037035 155.82834525 180.58066915 151.59509479 175.44026184 147.42842102 C172.87389469 145.32046263 170.34784599 143.17404229 167.82820129 141.01094055 C140.17601706 117.32760082 118.9587889 115.88845554 91.14338684 140.13154602 Z " fill="#000000" transform="translate(127.33708190917969,-0.1471710205078125)"/>
</svg>
