<!-- <svg
    className="absolute bottom-0 left-0 w-full h-auto"
    viewBox="0 0 1920 120"
    preserveAspectRatio="none"
    xmlns="http://www.w3.org/2000/svg"
>
    <path
        className="fill-background"
        d="M0,158.755s63.9,52.163,179.472,50.736c121.494-1.5,185.839-49.738,305.984-49.733,109.21,0,181.491,51.733,300.537,50.233,123.941-1.562,225.214-50.126,390.43-50.374,123.821-.185,353.982,58.374,458.976,56.373,217.907-4.153,284.6-57.236,284.6-57.236V351.03H0V158.755Z"
        transform="translate(0 -158.755)"
    />
</svg> -->

<svg xmlns="http://www.w3.org/2000/svg" width="1600" height="198">
    <defs>
        <linearGradient id="a" x1="50%" x2="50%" y1="-10.959%" y2="100%">
            <stop stop-color="#57BBC1" stop-opacity=".25" offset="0%" />
            <stop stop-color="#015871" offset="100%" />
        </linearGradient>
    </defs>
    <path fill="fill-background" fill-rule="evenodd"
        d="M.005 121C311 121 409.898-.25 811 0c400 0 500 121 789 121v77H0s.005-48 .005-77z"
        transform="matrix(-1 0 0 1 1600 0)" />
</svg>